<?xml version="1.0" encoding="utf-8"?><svg xmlns="http://www.w3.org/2000/svg" xmlns:xlink="http://www.w3.org/1999/xlink" width="1013" height="599" preserveAspectRatio="xMidYMid" viewBox="0 0 1013 599" style="z-index:1;margin-right:-2px;display:block;animation-play-state:paused" ><g transform="translate(506.5,299.5) scale(-1,1) translate(-506.5,-299.5)" style="transform:matrix(-1, 0, 0, 1, 1013, 0);animation-play-state:paused" ><linearGradient id="lg-0.7755034570199124" x1="0" x2="1" y1="0" y2="0" style="animation-play-state:paused" ><stop stop-color="#4e48c8" offset="0" style="animation-play-state:paused" ></stop>

  
<stop stop-color="#4e48c8" offset="1" style="animation-play-state:paused" ></stop></linearGradient>
<path d="M 0 0 L 0 528.271 Q 101.3 574.476 202.6 544.38 T 405.2 461.891 T 607.8 360.701 T 810.4 341.081 T 1013 265.106 L 1013 0 Z" fill="url(#lg-0.7755034570199124)" opacity="0.58" style="opacity:0.58;animation-play-state:paused" ></path>
<path d="M 0 0 L 0 533.124 Q 101.3 547.504 202.6 516.308 T 405.2 439.844 T 607.8 328.305 T 810.4 294.343 T 1013 273.361 L 1013 0 Z" fill="url(#lg-0.7755034570199124)" opacity="0.58" style="opacity:0.58;animation-play-state:paused" ></path>
<path d="M 0 0 L 0 577.539 Q 101.3 525.426 202.6 500.282 T 405.2 413.581 T 607.8 363.712 T 810.4 316.001 T 1013 235.294 L 1013 0 Z" fill="url(#lg-0.7755034570199124)" opacity="0.58" style="opacity:0.58;animation-play-state:paused" ></path>
<path d="M 0 0 L 0 562.467 Q 101.3 502.669 202.6 478.994 T 405.2 402.077 T 607.8 367.974 T 810.4 292.783 T 1013 238.803 L 1013 0 Z" fill="url(#lg-0.7755034570199124)" opacity="0.58" style="opacity:0.58;animation-play-state:paused" ></path>
<path d="M 0 0 L 0 512.597 Q 101.3 490.342 202.6 465.357 T 405.2 387.726 T 607.8 325.785 T 810.4 323.712 T 1013 247.045 L 1013 0 Z" fill="url(#lg-0.7755034570199124)" opacity="0.58" style="opacity:0.58;animation-play-state:paused" ></path></g></svg>